{
  "asset": {
    "generator": "Khronos glTF Blender I/O v1.8.19",
    "version": "2.0"
  },
  "scene": 0,
  "scenes": [
    {
      "name": "Scene",
      "nodes": [0]
    }
  ],
  "nodes": [
    {
      "mesh": 0,
      "name": "\u6218\u673a06",
      "scale": [5.5878472328186035, 5.5878472328186035, 5.5878472328186035]
    }
  ],
  "materials": [
    {
      "doubleSided": true,
      "name": "Mat3d66-1119144-19-8967",
      "pbrMetallicRoughness": {
        "baseColorTexture": {
          "index": 0
        },
        "metallicFactor": 0.25984251499176025,
        "roughnessFactor": 0.67322838306427
      }
    }
  ],
  "meshes": [
    {
      "name": "Obj3d66-1119144-5-862",
      "primitives": [
        {
          "attributes": {
            "POSITION": 0,
            "NORMAL": 1,
            "TEXCOORD_0": 2
          },
          "indices": 3,
          "material": 0
        }
      ]
    }
  ],
  "textures": [
    {
      "sampler": 0,
      "source": 0
    }
  ],
  "images": [
    {
      "bufferView": 4,
      "mimeType": "image/png",
      "name": "Image_0"
    }
  ],
  "accessors": [
    {
      "bufferView": 0,
      "componentType": 5126,
      "count": 16428,
      "max": [0.9698982238769531, 0.8052001595497131, 1.7378249168395996],
      "min": [-0.9699020385742188, 0, -1.7378249168395996],
      "type": "VEC3"
    },
    {
      "bufferView": 1,
      "componentType": 5126,
      "count": 16428,
      "type": "VEC3"
    },
    {
      "bufferView": 2,
      "componentType": 5126,
      "count": 16428,
      "type": "VEC2"
    },
    {
      "bufferView": 3,
      "componentType": 5123,
      "count": 16428,
      "type": "SCALAR"
    }
  ],
  "bufferViews": [
    {
      "buffer": 0,
      "byteLength": 197136,
      "byteOffset": 0
    },
    {
      "buffer": 0,
      "byteLength": 197136,
      "byteOffset": 197136
    },
    {
      "buffer": 0,
      "byteLength": 131424,
      "byteOffset": 394272
    },
    {
      "buffer": 0,
      "byteLength": 32856,
      "byteOffset": 525696
    },
    {
      "buffer": 0,
      "byteLength": 250690,
      "byteOffset": 558552
    }
  ],
  "samplers": [
    {
      "magFilter": 9729,
      "minFilter": 9987
    }
  ],
  "buffers": [
    {
      "byteLength": 809244,
      "uri": "data:application/octet-stream;base64,"
    }
  ]
}
