{
  "asset": {
    "generator": "Khronos glTF Blender I/O v1.8.19",
    "version": "2.0"
  },
  "scene": 0,
  "scenes": [
    {
      "name": "Scene",
      "nodes": [0]
    }
  ],
  "nodes": [
    {
      "mesh": 0,
      "name": "\u6218\u673a01",
      "scale": [7.527224063873291, 7.527224063873291, 7.527224063873291]
    }
  ],
  "materials": [
    {
      "doubleSided": true,
      "name": "Mat3d66-1119144-3-9684",
      "pbrMetallicRoughness": {
        "baseColorTexture": {
          "index": 0
        },
        "metallicFactor": 0.29921260476112366,
        "roughnessFactor": 0.7834646105766296
      }
    }
  ],
  "meshes": [
    {
      "name": "Obj3d66-1119144-2-183",
      "primitives": [
        {
          "attributes": {
            "POSITION": 0,
            "NORMAL": 1,
            "TEXCOORD_0": 2,
            "TEXCOORD_1": 3,
            "TEXCOORD_2": 4,
            "TEXCOORD_3": 5,
            "TEXCOORD_4": 6,
            "TEXCOORD_5": 7,
            "TEXCOORD_6": 8,
            "TEXCOORD_7": 9
          },
          "indices": 10,
          "material": 0
        }
      ]
    }
  ],
  "textures": [
    {
      "sampler": 0,
      "source": 0
    }
  ],
  "images": [
    {
      "bufferView": 11,
      "mimeType": "image/png",
      "name": "Image_0"
    }
  ],
  "accessors": [
    {
      "bufferView": 0,
      "componentType": 5126,
      "count": 17401,
      "max": [1.3298773765563965, 0.8116729259490967, 0.9874448776245117],
      "min": [-1.3298778533935547, 0, -0.9874444007873535],
      "type": "VEC3"
    },
    {
      "bufferView": 1,
      "componentType": 5126,
      "count": 17401,
      "type": "VEC3"
    },
    {
      "bufferView": 2,
      "componentType": 5126,
      "count": 17401,
      "type": "VEC2"
    },
    {
      "bufferView": 3,
      "componentType": 5126,
      "count": 17401,
      "type": "VEC2"
    },
    {
      "bufferView": 4,
      "componentType": 5126,
      "count": 17401,
      "type": "VEC2"
    },
    {
      "bufferView": 5,
      "componentType": 5126,
      "count": 17401,
      "type": "VEC2"
    },
    {
      "bufferView": 6,
      "componentType": 5126,
      "count": 17401,
      "type": "VEC2"
    },
    {
      "bufferView": 7,
      "componentType": 5126,
      "count": 17401,
      "type": "VEC2"
    },
    {
      "bufferView": 8,
      "componentType": 5126,
      "count": 17401,
      "type": "VEC2"
    },
    {
      "bufferView": 9,
      "componentType": 5126,
      "count": 17401,
      "type": "VEC2"
    },
    {
      "bufferView": 10,
      "componentType": 5123,
      "count": 34161,
      "type": "SCALAR"
    }
  ],
  "bufferViews": [
    {
      "buffer": 0,
      "byteLength": 208812,
      "byteOffset": 0
    },
    {
      "buffer": 0,
      "byteLength": 208812,
      "byteOffset": 208812
    },
    {
      "buffer": 0,
      "byteLength": 139208,
      "byteOffset": 417624
    },
    {
      "buffer": 0,
      "byteLength": 139208,
      "byteOffset": 556832
    },
    {
      "buffer": 0,
      "byteLength": 139208,
      "byteOffset": 696040
    },
    {
      "buffer": 0,
      "byteLength": 139208,
      "byteOffset": 835248
    },
    {
      "buffer": 0,
      "byteLength": 139208,
      "byteOffset": 974456
    },
    {
      "buffer": 0,
      "byteLength": 139208,
      "byteOffset": 1113664
    },
    {
      "buffer": 0,
      "byteLength": 139208,
      "byteOffset": 1252872
    },
    {
      "buffer": 0,
      "byteLength": 139208,
      "byteOffset": 1392080
    },
    {
      "buffer": 0,
      "byteLength": 68322,
      "byteOffset": 1531288
    },
    {
      "buffer": 0,
      "byteLength": 898110,
      "byteOffset": 1599612
    }
  ],
  "samplers": [
    {
      "magFilter": 9729,
      "minFilter": 9987
    }
  ],
  "buffers": [
    {
      "byteLength": 2497724,
      "uri": "data:application/octet-stream;base64,"
    }
  ]
}
